# xmcd CD database file
#
# Track frame offsets:
#	150
#	20259
#	36723
#	55284
#	74409
#	92341
#	114671
#	131663
#	149630
#	167098
#
# Disc length: 2485 seconds
#
# Revision: 2
# Processed by: cddbd v1.5.1PL0 Copyright (c) Steve Scherf et al.
# Submitted via: CDex 1.51
#
DISCID=9309b30a
DTITLE=Буланова Татьяна - Стая
DYEAR=1999
DGENRE=Pop
TTITLE0=Мало не много
TTITLE1=Ветер пел
TTITLE2=Мертвые цветы
TTITLE3=Пристань на ветру
TTITLE4=Шарманка
TTITLE5=Радуга-дуга
TTITLE6=Стая
TTITLE7=Обманула
TTITLE8=Иванов день
TTITLE9=Любовь
EXTD=YEAR: 1999
EXTT0=
EXTT1=
EXTT2=
EXTT3=
EXTT4=
EXTT5=
EXTT6=
EXTT7=
EXTT8=
EXTT9=
PLAYORDER=
